<svg xmlns:inkscape="http://www.inkscape.org/namespaces/inkscape" xmlns:sodipodi="http://sodipodi.sourceforge.net/DTD/sodipodi-0.dtd" xmlns="http://www.w3.org/2000/svg" xmlns:svg="http://www.w3.org/2000/svg" viewBox="0 0 1607.92 320" version="1.1" id="svg77" sodipodi:docname="mpi_magdeburg.svg" inkscape:version="1.1.1 (3bf5ae0d25, 2021-09-20)" viewport="0 0 5120px 1019px">
  <sodipodi:namedview id="namedview79" pagecolor="#ffffff" bordercolor="#666666" borderopacity="1.0" inkscape:pageshadow="2" inkscape:pageopacity="0.0" inkscape:pagecheckerboard="0" showgrid="false" fit-margin-top="10" fit-margin-left="10" fit-margin-right="10" fit-margin-bottom="10" inkscape:zoom="0.496" inkscape:cx="1261.0887" inkscape:cy="159.27419" inkscape:window-width="2560" inkscape:window-height="1355" inkscape:window-x="0" inkscape:window-y="0" inkscape:window-maximized="1" inkscape:current-layer="svg77"/>
  <defs id="defs978"/>
  <defs id="defs5">
    <style id="style3">.minerva-base-style{}</style>
  </defs>
  <g transform="matrix(1.4285714,0,0,1.4285714,10,10)" style="fill:#656767" id="g51">
    <title id="title7">minerva</title>
    <path d="M 105,0 A 105,105 0 1 0 210,105 105.1,105.1 0 0 0 105,0 Z m 0,207.1 A 102.1,102.1 0 1 1 207.1,105 102.2,102.2 0 0 1 105,207.1 Z" id="path9"/>
    <path class="minerva-base-style" d="m 166.6,97 c -1.4,-3.1 -0.5,-5.1 -0.9,-7.3 -0.4,-2.2 -2.7,-7 -4.3,-10.8 -0.7,-1.7 3.8,-1.3 0.4,-7.6 0,-0.2 4.7,-2 0,-5.5 a 26.4,26.4 0 0 1 -6,-6.7 1,1 0 0 1 0,-1.3 c 2.7,-2.4 2.8,-5.8 -0.1,-7.5 -2.9,-1.7 -4.5,0 -6.7,1.4 -0.7,0.5 -1.1,0.8 -1.9,0.5 L 145.3,51 c 2.7,-2.6 3.3,-5.2 3.1,-5.6 -0.2,-0.4 -4.6,-1.3 -10.2,1 l -0.4,-0.3 c 2.3,-3.9 1,-6.7 0.9,-6.9 h -0.1 A 81,81 0 0 1 151,25.9 h 0.1 c 0.2,-0.3 0.3,-0.6 -0.2,-0.9 l -1,-0.6 A 92.4,92.4 0 0 0 12.7,105 c 0,29.5 15,57.9 39.4,75.6 a 13.5,13.5 0 0 0 2.8,1.6 1.1,1.1 0 0 0 1.1,-0.2 l 0.3,-0.5 a 1,1 0 0 0 0.3,-0.8 c 0,-0.7 -0.9,-1.3 -2.1,-3 a 27.7,27.7 0 0 1 -4.7,-15.1 22.1,22.1 0 0 1 4.5,-13.7 c 3.7,3.9 11.7,10.9 11.5,17.4 -0.2,6.5 -6.9,6.8 -5.4,12.2 0.9,3.4 3.4,2 3.9,4.6 0.7,4.4 6.7,7.3 9.3,6.9 0.7,-0.1 1.2,0.4 2.4,1.7 1.2,1.3 6.2,1.6 8.2,1.2 2,-0.4 4.1,1.4 8,0.9 3.9,-0.5 6.1,-0.9 8.2,-0.9 2.1,0 22.5,-0.3 36,1.8 2.4,0.4 3.1,-0.7 2.1,-2.5 -4.9,-8.6 -5.6,-15.8 -2.8,-25 5,0.4 12.2,1.7 21.6,-4 a 11,11 0 0 0 5.1,-9.5 c -0.1,-2.1 -1,-4.7 -0.5,-6.7 0.5,-2 1.3,-2.7 2.1,-3.2 3.6,-2.6 1,-4.6 0.4,-4.8 a 3.4,3.4 0 0 0 1.1,-4.6 c -0.7,-0.7 -2.7,-6.2 -0.4,-7.3 2.3,-1.1 5.3,-1.8 8.1,-3.1 a 4.5,4.5 0 0 0 2.4,-6 c -1.4,-3.6 -8.8,-20.6 -9,-21 z M 64.7,179.1 c -0.7,0.2 -2.9,0.3 -2.4,-2.7 0.5,-3 2.3,-2.6 3.3,-1.6 1,1 -0.7,2.8 -0.9,4.3 z m 87,-125.9 c 1.2,-0.8 2.5,-1.1 3.3,-0.4 2.6,2.6 -2.9,4.1 -1.8,6.1 a 30.7,30.7 0 0 0 7.5,8.4 c 1.2,1 1.4,3.1 -3.3,4.1 -4.7,1 -23.6,5.9 -33.6,16.5 -12.5,13.2 -20.4,30.3 -21.5,28 -1.1,-2.3 -3.6,-2.8 -3.2,-3.5 17.9,-30.8 46,-55.1 52.6,-59.2 z m 8.2,21.7 c -1,2.9 -9.1,5.5 -8.7,3.5 0.4,-2 0,-2.2 0.6,-2.3 0.6,-0.1 3.5,-1.1 7.5,-2.1 0.4,-0.1 0.9,0.1 0.6,0.9 z m -20.6,5.3 c -0.2,-1.2 8.5,-4.1 8.8,-3.3 0.3,0.8 -1.8,6 -4.7,7 -2.9,1 -4.7,0.9 -4.6,0.4 a 11,11 0 0 0 0.5,-4.1 z M 119,125.8 c -4,2.5 -6.2,-2.2 -6.8,-3.1 a 3.7,3.7 0 0 1 -0.5,-3.1 c 0.3,-1.4 0.5,-3.3 -0.4,-9.3 -0.4,-2.7 5,-9.2 6.3,-10.4 1.3,-1.2 3.1,0.6 3.2,2.6 0.3,3.6 -1.8,5.6 -3.9,7.2 -2.1,1.6 -3.1,4.4 -2.6,5.1 a 1.5,1.5 0 0 0 1.9,-0.9 c 1.5,-3.3 6,-4.9 6.7,-6.7 0.7,-1.8 0.3,-4.4 0.2,-5.6 -0.1,-1.2 0.9,-1.2 1.6,-1.1 0.7,0.1 1.4,1.4 1.8,2.7 2.9,7.5 -4.3,12 -5.5,13.8 -1.2,1.8 1.1,6.9 -2,8.8 z m 6.1,-29.1 c -2.2,1.5 -5.3,-0.5 -4.7,-1.4 a 43.7,43.7 0 0 1 11.5,-11 c 3.4,-2.1 3.8,-2.3 4,-1.1 a 10.6,10.6 0 0 1 -2.6,7.5 c -2.3,2.5 -4.6,2.3 -5.8,2.6 -1.2,0.3 -0.8,2.3 -2.4,3.4 z m -19.3,25.6 c -1,-0.2 -1.4,-2.1 -1.2,-2.9 0.2,-0.8 3.1,-5.2 4,-6.4 a 0.5,0.5 0 0 1 0.8,0.3 c 0.6,4.1 0,9.8 -3.6,9 z M 138,48.2 a 17.7,17.7 0 0 1 7.5,-1.6 c 0.8,0.1 -1.9,4.8 -6.6,6.8 -4.7,2 -8.5,2.5 -8.9,2.3 -0.4,-0.2 4.1,-5.8 8,-7.5 z m -83.3,78.3 c -1.5,-1.7 -2.8,-2.6 -2.9,-2.5 A 22.4,22.4 0 0 0 48.2,132.9 65.4,65.4 0 0 1 40.7,105 C 39.3,69.6 69,41.1 105.2,41.2 a 56.8,56.8 0 0 1 22.4,4.6 31.3,31.3 0 0 0 -3.7,6.6 c 0,-1.9 -0.5,-3.4 -0.4,-4.6 0.1,-1.2 -5.1,0.9 -9.7,8.3 a 19.9,19.9 0 0 0 -2.2,5.3 c -0.1,-2.8 -0.7,-4.9 -0.9,-4.9 a 16.1,16.1 0 0 0 -8.5,8.8 22.4,22.4 0 0 0 -1.1,3.4 c -0.2,-1.9 -0.7,-3.2 -0.9,-3.2 -0.2,0 -5.9,2.3 -8.6,8.9 A 15.4,15.4 0 0 0 90.5,79 C 90,76.7 89.1,75.3 88.8,75.6 86.9,78 83.1,79.1 81.2,85.2 a 13.2,13.2 0 0 0 -0.7,4.2 c -0.8,-2 -2,-3.2 -2.3,-3.2 -0.3,0 -6.1,5.5 -7,10.9 a 15.8,15.8 0 0 0 0.2,5.8 c -1.1,-1.8 -2.5,-3 -3.1,-4.8 -0.9,0.5 -5.7,5 -5.8,10.7 a 19.7,19.7 0 0 0 0.7,6.1 c -1.6,-2.9 -3.8,-4.2 -4.1,-4.1 -0.3,0.1 -4,4.1 -4.8,11.1 a 11.8,11.8 0 0 0 0.4,4.6 z m 74.1,-79.7 c 2.8,-3.4 7.6,-6.1 8.2,-5.8 0.6,0.3 -0.8,5.6 -3.9,8.6 -3.1,3 -8.1,6.2 -8.6,6.1 -0.5,-0.1 1.7,-5.9 4.3,-8.9 z m -9.3,13 a 21,21 0 0 0 -5.6,6.4 c -0.5,0.9 -1.9,-5 1.7,-10.6 2.2,-3.5 6.6,-6.6 6.5,-6.2 -0.1,0.4 2.1,6.6 -2.6,10.4 z m -10.1,7.5 c -3.4,5.1 -3.6,3.3 -7.3,8.3 -0.2,0.2 -0.2,-6.5 1.1,-9.4 2.1,-4.7 5.7,-7.4 6.2,-7.5 0.5,-0.1 1.9,5.8 0,8.6 z M 98.3,77.4 c -1.7,3 -3.3,2.3 -6.2,6.7 -0.3,0.4 -1.1,-3.6 0.7,-9.1 a 12.6,12.6 0 0 1 5.9,-6.9 c 0.6,-0.1 1.7,5.7 -0.4,9.3 z M 88,88.1 c -1.8,3.9 -2.9,4 -5,6.4 -0.3,0.4 -1.8,-3.7 -0.4,-8.8 1.4,-5.1 4,-5.6 5.3,-7 1.3,-1.4 2,5.3 0.1,9.4 z m -8.4,6.6 a 10.3,10.3 0 0 1 -0.4,3 c -1.3,4.3 -3.9,6.2 -5.3,8.1 A 15.7,15.7 0 0 1 72.3,100 15.2,15.2 0 0 1 77.5,88.8 c 0.8,0 2.1,3.2 2.1,5.9 z m -8.5,12.8 a 14.9,14.9 0 0 1 -5.1,10.8 17.7,17.7 0 0 1 -2.2,-7.6 c -0.2,-6.3 2.4,-8.5 3.6,-9.7 0.5,1.8 3.7,3.2 3.7,6.5 z M 59,113.8 c 1.8,0.9 3.9,3.4 4.1,8.2 0.2,4.8 -3.2,8.7 -4.6,9.4 -0.9,-3.7 -2.6,-4.4 -2.6,-8 a 18,18 0 0 1 3.1,-9.6 z m 7.3,12.5 c 4.6,-2 9.6,-1.7 9.8,-1.5 0.2,0.2 -1.5,5.9 -5.9,8.2 -4.4,2.3 -9.5,2.7 -10,2.1 -0.5,-0.6 1.5,-6.8 6.1,-8.8 z m -0.4,-3.4 c 0.3,-1.5 3,-6.5 7.1,-8.3 v 0 a 18.4,18.4 0 0 1 9.4,-1.5 c 0.5,0.2 -1.7,5.6 -5.8,7.6 -4.1,2 -6.5,0.9 -10.7,2.2 z m 6.9,-11.8 c 0.2,-0.4 3.5,-6.4 7.4,-8.2 a 17.5,17.5 0 0 1 8.9,-1.4 c 0.3,0.1 -1.8,5.4 -6.2,7.6 -4.4,2.2 -10.3,2.5 -10.1,2 z m 8.9,-11.9 c -0.3,-0.2 4.4,-6.4 8.4,-8.3 a 15.6,15.6 0 0 1 8.4,-1 c 0.3,0.3 -1.9,5.5 -6.5,7.5 A 24.2,24.2 0 0 1 81.7,99.2 Z M 92.4,87.4 c -0.2,-0.2 3.4,-6.3 7.4,-7.9 4,-1.6 7.7,-0.1 8.9,0 1.2,0.1 -1.3,4.5 -6.6,6.4 -5.3,1.9 -9,1.8 -9.7,1.5 z m 12,-11.4 c 0.1,-0.3 4.1,-5.9 8.1,-7.3 a 16.4,16.4 0 0 1 9.2,-0.2 c 0.5,0.2 -2.8,5 -7.7,6.5 -4.9,1.5 -9.7,1.3 -9.6,1 z m 12.1,-9.9 c -0.5,-0.3 4.3,-5.7 8.2,-7.2 a 18,18 0 0 1 8.3,-1 c 0.3,0.2 -2.5,4.9 -7.1,6.7 -4.6,1.8 -8.8,1.9 -9.4,1.5 z M 50.2,175.3 C 28.6,158.1 15.6,132.1 15.6,105 a 89.3,89.3 0 0 1 130.8,-79.2 0.4,0.4 0 0 1 0.1,0.7 97.3,97.3 0 0 0 -10.2,11.4 73.1,73.1 0 0 0 -31.3,-7 74.3,74.3 0 0 0 -74.1,74.1 72.1,72.1 0 0 0 17.9,48.2 23.1,23.1 0 0 0 -1.9,9.4 25.6,25.6 0 0 0 3.3,12.7 z m 0.2,-24.8 H 50.3 A 69.2,69.2 0 0 1 33.9,105 71.2,71.2 0 0 1 105,33.9 70.1,70.1 0 0 1 134.6,40.3 22.6,22.6 0 0 0 130.5,42.9 63.1,63.1 0 0 0 105,37.8 67.3,67.3 0 0 0 37.8,105 c 0,16.1 5,30.2 14.8,42 -0.5,0.9 -1.3,2.1 -2.2,3.5 z m 3.5,-5.6 c -1.3,-1.2 -4.1,-4.3 -4.4,-8.3 V 136 c 0,-4.3 1.9,-8.6 2.4,-9 0.5,-0.4 5.3,3.3 5.4,8.7 a 14.4,14.4 0 0 1 -3.4,9.2 z m 8,-7.2 c 3.9,-1.8 9.6,-1.4 9.3,-1.1 -0.3,0.3 -1.8,5.8 -6.2,8 a 12.1,12.1 0 0 1 -8.7,1.3 c 2.3,-2.6 1.8,-6.4 5.6,-8.2 z m 5.2,46.5 c -0.6,-2.7 -0.4,-6.3 0.5,-7.3 0.9,-1 4.9,-1.2 5,-0.1 0.1,1.1 -1.1,5.4 0.3,10.2 -0.3,0.7 -4.6,0.4 -5.8,-2.8 z m 0.3,-11.1 c -0.3,-2 1.6,-3.9 1.6,-8.2 0,-4.3 -6.6,-12.6 -11.1,-17.3 a 19.5,19.5 0 0 0 7.9,-1.9 c 6.6,-3.1 7.9,-10.1 8.1,-10.4 a 11,11 0 0 0 -3.8,-0.4 l 0.8,-0.4 c 6.4,-3.5 8.1,-11 7.8,-11.1 a 17,17 0 0 0 -4,-0.3 l 2,-0.7 c 6.8,-2.7 8.7,-10.3 8.5,-10.6 a 16.1,16.1 0 0 0 -3.5,-0.4 l 1.9,-0.8 c 6.2,-3.1 8.4,-10.1 8.1,-10.3 a 10.5,10.5 0 0 0 -3.3,-0.4 23.7,23.7 0 0 0 4.5,-1.5 c 6.7,-2.9 8.9,-9.3 8.6,-9.6 a 10.9,10.9 0 0 0 -3,-0.5 34.5,34.5 0 0 0 4.4,-1.3 c 6.6,-2.2 9.2,-8.5 8.8,-8.6 L 108,77.6 a 24.5,24.5 0 0 0 6.6,-1.3 c 7.1,-2.4 9.6,-6.7 9.8,-8.6 a 6,6 0 0 0 -2.3,-0.8 29.3,29.3 0 0 0 4.7,-1.2 c 6.6,-2.7 9.4,-9.3 9.6,-9.8 a 29.3,29.3 0 0 0 3.9,-1.6 l 1.9,-0.9 1.6,1.1 c 1,0.6 1.4,0.8 0.9,1.2 C 122,75 105,99.5 97.6,111.3 c -0.2,0.4 -0.6,0.3 -1.3,0.3 -7.9,-0.6 -12.4,8.9 -8.9,17.8 -0.4,1.8 -4.2,5.3 -4.5,5.5 -0.3,0.2 -1,1.4 0.3,1.3 1.3,-0.1 4.2,-3.2 5.4,-4.5 0.4,0.6 2.2,2 1.3,2.8 A 63.6,63.6 0 0 1 76,145 c -2.6,1.2 4.2,2.1 15.7,-8.3 0.7,-0.6 1.5,2.4 2.5,3.7 -2,6.5 2.9,19.1 2.1,23 a 2.8,2.8 0 0 1 -2.8,2.7 c -11.4,0.3 -12.5,-0.3 -18.3,1.4 -2.7,0.8 -2,2.6 -0.1,2.1 1.9,-0.5 4.6,-1.5 16.9,-0.7 3.1,0.1 6.5,-0.6 6.5,-5.7 0,-5.1 -3.6,-18.4 -2.4,-20.3 a 6.9,6.9 0 0 0 3.5,1.4 c -0.2,4.5 7,19 3.8,27 -1.2,3 -6.4,2.7 -15.4,1.8 -15.3,-1.5 -20.3,1.8 -20.6,0 z m 35.1,9.9 c -5.9,2 -8.3,-4.9 -7.3,-6.4 1,-1.5 4.4,1 7.3,-0.9 2.9,-1.9 3.5,6.1 0,7.3 z m -27,4.3 c -0.8,-3.7 -1.1,-10 0.4,-11.5 1.5,-1.5 4.9,-0.9 4.8,0.2 -0.3,4.3 -2.1,9.2 1.2,14.1 1.3,1.9 -5.2,2.2 -6.4,-2.8 z m 11.4,4.2 c -1.6,-0.4 -6,-7.4 -2.4,-15.8 0.3,-0.8 5.8,-0.3 6.8,0 1,0.3 -0.8,6.8 6.8,9.8 0.7,0.3 -0.1,8.8 -11.2,6 z m 47.2,-23.3 c -2.5,8.8 -3.8,12.3 0,21.9 0.5,1.3 0.9,2.3 -0.2,2.1 -7.7,-1.4 -9.4,-2.6 -33.7,-0.6 -1.7,0.2 0.6,-3.4 0.3,-5.8 2.2,-0.3 5.8,-1.3 6.5,-4.9 0.7,-3.6 -2.1,-7.6 -1.8,-8.2 3.5,-6.7 -0.2,-14.1 -3.1,-26.6 -0.3,-1.2 0.4,-1.7 0.9,-1.1 15.6,16.9 25.5,20.2 30.9,21.8 0.5,0.2 0.4,0.8 0.2,1.4 z M 174,122.1 c -3.3,2.9 -8.3,3.1 -10.3,4.9 -2,1.8 -1.5,2.5 -0.4,5.2 1.1,2.7 1.1,1.7 -1.1,2.3 -2.2,0.6 -4.1,5.8 -8.8,4.9 -1.8,-0.3 -0.5,0.8 0.2,0.9 2.6,0.3 3.7,-0.5 4.6,-1.4 0.9,-0.9 2.2,-2.4 3.6,-2.9 1.4,-0.5 2.9,-0.5 3,0.6 0.1,1.1 -1.9,2.1 -2.7,2.5 1,0.5 3.9,1.9 1.4,3.6 -2.5,1.7 -4.6,-0.5 -4.9,-0.7 -0.3,-0.2 -1.7,-0.2 -1.3,0.3 0.4,0.5 5.2,1.3 4.5,2.2 -3.5,4.7 -0.6,7.5 -1.7,12.3 -1.1,4.8 -7.7,7.5 -12.8,8.4 -17.4,3.1 -34.3,-11.6 -44.2,-22.8 0.9,-2.1 0.8,-4.8 -0.1,-3.8 -0.9,1 -0.7,2.4 -2.8,2.9 -3.9,1 -5.7,-5.9 -6.9,-7.1 -4.8,-4.7 -6.7,-11.4 -3.9,-17.3 2.8,-5.9 9,-4.7 11.4,-1.1 2.4,3.6 1.7,7 3.4,8.3 1.7,1.3 4.8,0.2 5.4,0 0.6,-0.2 1.7,4.3 8,4.1 6.3,-0.2 5.9,-10.7 6.9,-11.6 8.6,-8.4 4.2,-15.9 2.6,-17.6 -1.6,-1.7 1,-3.6 1.5,-3.7 a 13,13 0 0 0 9.4,-7.7 c 0,0 8.4,-0.2 11.4,-6.2 0.8,-1.6 3.3,1.5 8.9,-2.9 a 0.8,0.8 0 0 1 1.4,0.3 c 3.7,8.9 5.2,11.3 4.9,15.8 -0.3,4.5 8.7,21.5 9.4,23.1 0.7,1.6 0.8,3.4 0,4.2 z" id="path11"/>
    <path class="minerva-base-style" d="m 153.8,90 c -4.9,0.2 -10.6,6.2 -12.4,7 -1.8,0.8 -1.3,1.5 -0.2,1.1 1.1,-0.4 5.9,-4.7 10.7,-6.4 4.8,-1.7 3.6,1.8 5,1.6 1.4,-0.2 -0.3,-3.4 -3.1,-3.3 z" id="path13"/>
    <path class="minerva-base-style" d="m 154.9,94.8 c -0.4,0.1 0.4,2.2 -1.7,2.3 -4.6,0.3 -8.3,4.7 -11.1,6 a 12.9,12.9 0 0 1 -3.8,1.4 0.30413813,0.30413813 0 0 0 0.1,0.6 c 11.7,1.6 16.2,1.1 16.3,0.7 0.1,-0.4 -0.6,-1.2 -0.4,-1.7 a 11.3,11.3 0 0 0 0.1,-5.5 c -0.2,-0.8 1.8,-0.3 1.8,-1.3 0,-1 -0.6,-2.6 -1.3,-2.5 z m -1.8,9.3 c -0.2,0.9 -5.5,0.5 -8.3,0.2 -0.7,0 -1.8,-0.1 0.3,-1.4 2.1,-1.3 4.1,-2.8 7.2,-3.4 a 0.8,0.8 0 0 1 0.8,0.6 10.6,10.6 0 0 1 0,4 z" id="path15"/>
    <path class="minerva-base-style" d="m 168.4,120.8 c -0.9,0 -4.5,1.6 -5.9,2.5 -1.4,0.9 -4.4,2.7 -4.2,-0.8 0.1,-1.3 0.9,-4.4 0.9,-5.3 0,-0.9 -1,-0.7 -1.1,0 a 36.9,36.9 0 0 1 -0.7,5.3 c -0.4,1.8 1.2,4 3.6,2.7 2.4,-1.3 4.8,-2.9 7.3,-3.4 0.6,-0.1 0.7,-1 0.1,-1 z" id="path17"/>
    <path class="minerva-base-style" d="m 100.5,133.6 c -0.7,-0.3 -0.5,1.2 -1.4,1 -0.9,-0.2 -0.2,-1.3 -1.8,-3 -1.6,-1.7 -2.8,-1.2 -4.3,-3.6 -1.5,-2.4 -0.3,-12 3.1,-10.8 3.4,1.2 1.6,5 1,8 -0.6,3 2.5,2.8 2.8,2.1 0.3,-0.7 -1.1,-0.9 -1.4,-1.9 -0.3,-1 3.5,-7.6 -1.8,-9.4 -3.8,-1.3 -6.4,3.6 -5.9,8.9 a 8,8 0 0 0 5.1,7.1 c 2.3,0.8 0.6,4 3.7,4 1.4,0 1.7,-2.1 0.9,-2.4 z" id="path19"/>
    <path class="minerva-base-style" d="m 131.3,33.4 c 0.2,0.1 0.3,0 0.5,-0.1 l 6.5,-8.3 a 0.5,0.5 0 0 0 -0.2,-0.6 L 137,24 a 0.4,0.4 0 0 0 -0.5,0.1 l -6.5,8.3 c -0.2,0.2 -0.1,0.5 0.2,0.6 z" id="path21"/>
    <path class="minerva-base-style" d="m 119.2,30 1.1,0.3 a 0.5,0.5 0 0 0 0.5,-0.3 l 3.8,-9.4 A 0.4,0.4 0 0 0 124.3,20 l -1.2,-0.2 h -0.3 l -3.9,9.6 a 0.4,0.4 0 0 0 0.3,0.6 z" id="path23"/>
    <path class="minerva-base-style" d="m 105.8,28.7 h 1.1 c 0.2,0.1 0.4,-0.1 0.4,-0.3 l 1,-10 a 0.5,0.5 0 0 0 -0.4,-0.5 h -1.1 c -0.3,0 -0.4,0.2 -0.5,0.4 l -0.9,10 a 0.4,0.4 0 0 0 0.4,0.4 z" id="path25"/>
    <path class="minerva-base-style" d="m 92.8,29.7 1.1,-0.2 c 0.2,0 0.4,-0.2 0.3,-0.4 l -1.9,-9.9 c 0,-0.2 -0.2,-0.4 -0.4,-0.3 h -1.2 c -0.2,0.1 -0.4,0.3 -0.3,0.5 l 1.9,9.9 c 0,0.3 0.2,0.4 0.5,0.4 z" id="path27"/>
    <path class="minerva-base-style" d="M 79.4,32.8 79.9,33 81,32.6 A 0.4,0.4 0 0 0 81.3,32 l -4.6,-9 a 0.4,0.4 0 0 0 -0.5,-0.2 l -1,0.3 a 0.4,0.4 0 0 0 -0.3,0.6 z" id="path29"/>
    <path class="minerva-base-style" d="m 67,38.5 c 0.1,0.2 0.3,0.2 0.5,0.1 l 1,-0.6 a 0.4,0.4 0 0 0 0.1,-0.6 l -6.7,-7.7 c -0.2,-0.2 -0.4,-0.2 -0.5,-0.1 l -1,0.6 c -0.3,0.1 -0.3,0.4 -0.1,0.6 z" id="path31"/>
    <path class="minerva-base-style" d="m 55.4,46.7 c 0.2,0.1 0.4,0.1 0.5,-0.1 l 0.9,-0.7 a 0.5,0.5 0 0 0 0,-0.7 l -8.5,-5.9 h -0.5 l -0.9,0.8 a 0.5,0.5 0 0 0 0,0.7 z" id="path33"/>
    <path class="minerva-base-style" d="m 45.4,57.1 a 0.4,0.4 0 0 0 0.4,-0.2 L 46.6,56 c 0.2,-0.2 0.1,-0.5 -0.2,-0.6 l -9.8,-3.8 c -0.2,-0.1 -0.4,-0.1 -0.5,0.1 l -0.7,0.9 a 0.4,0.4 0 0 0 0.2,0.7 z" id="path35"/>
    <path class="minerva-base-style" d="m 26.8,67.8 10.5,1.5 c 0.2,0 0.4,-0.1 0.4,-0.3 l 0.6,-1 A 0.4,0.4 0 0 0 38,67.4 L 27.5,65.9 27,66.1 a 5.4,5.4 0 0 1 -0.5,1.1 0.4,0.4 0 0 0 0.3,0.6 z" id="path37"/>
    <path class="minerva-base-style" d="m 21.1,83.7 10.7,-1 a 0.3,0.3 0 0 0 0.3,-0.3 7.6,7.6 0 0 0 0.4,-1.1 0.4,0.4 0 0 0 -0.4,-0.6 l -10.8,1 -0.4,0.3 -0.3,1.2 c 0,0.3 0.2,0.6 0.5,0.5 z" id="path39"/>
    <path class="minerva-base-style" d="m 29.2,96.5 c 0,-0.4 0.1,-0.9 0.1,-1.3 0,-0.4 -0.2,-0.5 -0.5,-0.4 l -10.4,3.6 c -0.2,0.1 -0.3,0.2 -0.3,0.4 0,0.2 -0.1,0.8 -0.1,1.2 a 0.4,0.4 0 0 0 0.6,0.4 l 10.3,-3.6 a 0.3,0.3 0 0 0 0.3,-0.3 z" id="path41"/>
    <path class="minerva-base-style" d="m 28.9,110.8 v -1.3 a 0.5,0.5 0 0 0 -0.7,-0.4 l -9.4,6.3 c -0.2,0 -0.2,0.2 -0.2,0.4 0,0.2 0.1,0.8 0.1,1.2 a 0.5,0.5 0 0 0 0.7,0.3 l 9.4,-6.2 c 0.1,-0.1 0.2,-0.2 0.1,-0.3 z" id="path43"/>
    <path class="minerva-base-style" d="M 31.3,125 31,123.7 a 0.4,0.4 0 0 0 -0.7,-0.2 l -7.7,8.5 c -0.1,0.1 -0.2,0.3 -0.1,0.4 0.1,0.1 0.3,0.8 0.4,1.2 a 0.4,0.4 0 0 0 0.7,0.2 l 7.6,-8.4 c 0.1,-0.1 0.1,-0.2 0.1,-0.4 z" id="path45"/>
    <path class="minerva-base-style" d="M 35.2,137.7 29.8,148 c -0.1,0.1 0,0.3 0,0.4 l 0.7,1.2 a 0.4,0.4 0 0 0 0.7,-0.1 l 5.4,-10.2 c 0,-0.1 0.1,-0.2 0,-0.4 L 36,137.7 a 0.5,0.5 0 0 0 -0.8,0 z" id="path47"/>
    <path class="minerva-base-style" d="m 42.9,149.3 c -0.2,-0.3 -0.7,-0.2 -0.7,0.1 l -2.9,12 c -0.1,0.2 0,0.3 0,0.4 l 1,1 a 0.4,0.4 0 0 0 0.7,-0.1 l 2.8,-11.9 c 0.1,-0.1 0,-0.2 0,-0.3 z" id="path49"/>
  </g>
  <rect x="376.66599" y="10" width="2.6500001" height="300" style="fill:#666666" id="rect53"/>
  <g transform="matrix(21.354927,0,0,21.354927,445.982,10)" id="g57">
    <g transform="translate(-55.342209,-129.33599)" id="layer1">
      <path id="path930" style="fill:#20b5cc;fill-opacity:1;fill-rule:nonzero;stroke:none;stroke-width:0.0352778" d="m 69.132929,138.21882 c 0.1626,-0.59295 0.25714,-1.21419 0.25714,-1.85868 0,-0.011 -10e-4,-0.0219 -10e-4,-0.0328 -0.45586,0.24476 -0.87852,0.60607 -1.29759,1.00817 0.33694,0.31365 0.68408,0.61101 1.04183,0.88332 m -1.26476,-1.09527 c 0.47241,-0.44979 0.96421,-0.86156 1.50746,-1.1279 -0.0321,-0.61585 -0.13974,-1.21172 -0.32029,-1.77617 -1.25635,0.16083 -2.21269,0.54638 -2.98524,1.04003 0.06,0.0642 0.11825,0.12594 0.17889,0.1911 0.51746,0.55604 1.05544,1.13139 1.61918,1.67294 m -2.05271,-2.13649 c 0.80462,-0.5249 1.80369,-0.94439 3.10896,-1.12572 -1.0083,-2.64364 -3.56026,-4.52536 -6.55849,-4.52536 -3.69672,0 -6.71791,2.85849 -6.99449,6.48479 1.36882,-0.47737 2.52416,-1.16638 3.52778,-1.76995 1.28764,-0.77502 2.38785,-1.4471 3.51356,-1.41746 1.08702,7.1e-4 2.17636,1.04951 3.40268,2.3537 m -10.46663,1.24008 c -0.001,0.0444 -0.007,0.0882 -0.007,0.133 0,3.87944 3.14466,7.02412 7.02384,7.02412 2.80321,0 5.21589,-1.64606 6.34256,-4.02096 -0.17032,0.0102 -0.35236,0.0165 -0.54818,0.018 h -0.0215 c -0.60219,2.9e-4 -1.10532,-0.21774 -1.56421,-0.5497 -0.76204,0.69786 -1.5886,1.25554 -2.6053,1.25554 h -0.0138 c -0.62964,-0.003 -1.1151,-0.38379 -1.61781,-0.8847 -0.35846,0.28924 -0.75173,0.47378 -1.23183,0.47378 -0.87065,0 -1.40546,-0.57369 -2.02505,-1.23762 -0.78588,-0.8424 -1.72889,-1.84961 -3.732,-2.21149 m 10.73259,-0.62025 c -0.071,-0.0758 -0.13934,-0.14856 -0.20919,-0.22367 -0.48754,0.33694 -0.8975,0.71727 -1.25773,1.11101 0.2618,0.26416 0.50765,0.53865 0.74511,0.80504 0.38128,0.42788 0.75459,0.8406 1.15397,1.16871 0.23495,-0.22337 0.46767,-0.45998 0.70375,-0.701 0.15985,-0.16302 0.32068,-0.32632 0.48327,-0.4862 -0.56402,-0.54254 -1.10172,-1.11785 -1.61918,-1.67389 m -9.68664,0.0547 c 1.94247,-0.41134 3.7907,-0.76165 4.96369,-0.74828 1.28902,0.0158 2.21463,0.60469 2.98799,1.32581 0.36255,-0.39413 0.77858,-0.78038 1.27247,-1.12642 -1.17768,-1.25099 -2.21999,-2.24935 -3.2089,-2.25048 -1.04179,-0.0265 -2.13568,0.62841 -3.39273,1.38508 -0.77432,0.46563 -1.64109,0.98005 -2.62252,1.41429 m 7.15723,2.15303 c -0.33197,0.44415 -0.64534,0.8562 -0.9821,1.1828 0.45819,0.45515 0.87337,0.77762 1.38712,0.78009 h 0.0127 c 0.90346,0 1.64454,-0.49004 2.35892,-1.13993 -0.40072,-0.33538 -0.77361,-0.74676 -1.15383,-1.17365 -0.23647,-0.26529 -0.47555,-0.53192 -0.72539,-0.78603 -0.33129,0.38076 -0.62233,0.76881 -0.89739,1.13672 m -1.58651,1.0068 c -1.01632,-1.06328 -2.34848,-2.44684 -5.31495,-2.61123 1.32263,0.50864 2.0877,1.31657 2.70189,1.97485 0.5836,0.62551 1.04429,1.11965 1.75344,1.11965 0.3664,0 0.67797,-0.14041 0.97039,-0.36834 -0.0367,-0.0385 -0.073,-0.0758 -0.11077,-0.11493 m -5.48185,-2.92531 c 3.20999,0.11825 4.62992,1.58613 5.70589,2.71117 0.0416,0.0434 0.0812,0.0839 0.12143,0.12594 0.3121,-0.30166 0.61196,-0.69811 0.94368,-1.14155 0.27658,-0.37014 0.57782,-0.77114 0.9277,-1.16981 -0.74538,-0.69924 -1.60997,-1.24577 -2.82705,-1.26051 -1.13881,-0.0124 -2.95632,0.33058 -4.87165,0.73476 m 11.67461,3.23758 c 0.24899,-0.002 0.46838,-0.0138 0.67508,-0.0298 0.089,-0.20919 0.16799,-0.424 0.2365,-0.64272 -0.3955,-0.29598 -0.77724,-0.62258 -1.14628,-0.96696 -0.16122,0.15875 -0.32205,0.32314 -0.48465,0.48933 -0.22228,0.22726 -0.44704,0.45435 -0.67592,0.67303 0.41204,0.28829 0.85729,0.47738 1.3765,0.47738 0.006,0 0.0127,-2.9e-4 0.0188,-2.9e-4"/>
    </g>
  </g>
  <g transform="translate(812.63903,23.817185)" id="g75">
    <g transform="translate(0,75.00366)" style="fill:#656767" id="g61">
      <path d="M 4.172,-47 H 16.719 L 28.703,-12.907 40.625,-47 H 53.25 V 0 H 43.609 V -12.844 L 44.563,-35.022 31.984,0 h -6.609 l -12.562,-34.99 0.968,22.146 V 0 H 4.172 Z M 94.734,0 91.5,-10.219 H 74.656 L 71.453,0 H 61.219 L 78.594,-47 H 87.5 L 104.953,0 Z M 83.047,-35.116 77.25,-18 H 88.906 Z M 121.109,-47 l 8.75,16.212 8.75,-16.212 h 11.047 L 136.078,-23.689 150.016,0 H 138.828 L 129.859,-16.464 120.891,0 H 109.703 L 123.641,-23.689 110.063,-47 Z m 49.454,23 v 7.453 H 152.531 V -24 Z m 28.64,7.781 h -8.422 V 0 h -9.609 v -47 h 18.187 q 5.266,0 9.25,1.958 3.985,1.957 6.133,5.57 2.149,3.613 2.149,8.213 v 0 q 0,6.987 -4.696,11.014 -4.695,4.026 -12.992,4.026 z m -8.422,-22.984 V -24 h 8.578 q 3.813,0 5.821,-1.866 2.008,-1.866 2.008,-5.322 v 0 q 0,-3.569 -2.024,-5.76 -2.023,-2.19 -5.57,-2.255 v 0 z m 46,-7.797 v 39.281 h 20.407 V 0 H 227.172 V -47 Z M 295.734,0 292.5,-10.219 H 275.656 L 272.453,0 h -10.234 l 17.375,-47 H 288.5 L 305.953,0 Z M 284.047,-35.116 278.25,-18 h 11.656 z M 352.109,-47 V 0 h -9.625 L 323.781,-30.914 V 0 h -9.609 v -47 h 9.609 l 18.735,30.992 V -47 Z m 39.063,31.812 h 9.609 q -0.531,7.532 -5.547,11.86 Q 390.219,1 382.016,1 v 0 q -8.969,0 -14.118,-6.047 -5.148,-6.047 -5.148,-16.607 v 0 -2.848 q 0,-6.743 2.375,-11.875 2.375,-5.131 6.781,-7.877 Q 376.313,-47 382.141,-47 v 0 q 8.078,0 13.007,4.328 4.93,4.328 5.711,12.141 v 0 h -9.625 q -0.343,-4.516 -2.507,-6.547 -2.164,-2.031 -6.586,-2.031 v 0 q -4.813,0 -7.196,3.452 -2.382,3.452 -2.445,10.7 v 0 3.538 q 0,7.577 2.289,11.076 2.289,3.499 7.227,3.499 v 0 q 4.453,0 6.648,-2.039 2.195,-2.039 2.508,-6.305 z M 436.766,0 l -11.985,-18.857 -5,5.431 V 0 h -9.609 v -47 h 9.609 v 21.312 L 424,-31.527 435.891,-47 h 11.828 L 431.156,-26.113 448.203,0 Z m 29.797,-24 v 7.453 H 448.531 V -24 Z m 21.828,-23 V 0 h -9.61 v -47 z m 50.718,0 V 0 h -9.625 L 510.781,-30.914 V 0 h -9.609 v -47 h 9.609 l 18.735,30.992 V -47 Z m 35.25,35.114 v 0 q 0,-2.739 -1.921,-4.195 -1.922,-1.457 -6.922,-3.077 -5,-1.62 -7.922,-3.201 v 0 q -7.938,-4.302 -7.938,-11.577 v 0 q 0,-3.786 2.133,-6.751 2.133,-2.965 6.117,-4.639 3.985,-1.674 8.953,-1.674 v 0 q 5,0 8.907,1.815 3.906,1.815 6.07,5.116 2.164,3.301 2.164,7.51 v 0 h -9.609 q 0,-3.212 -2.024,-4.999 -2.023,-1.786 -5.664,-1.786 v 0 q -3.531,0 -5.484,1.497 -1.953,1.497 -1.953,3.942 v 0 q 0,2.289 2.289,3.825 2.289,1.536 6.742,2.897 v 0 q 8.203,2.455 11.953,6.115 3.75,3.66 3.75,9.118 v 0 q 0,6.053 -4.578,9.501 Q 574.844,1 567.078,1 v 0 q -5.375,0 -9.797,-1.971 -4.422,-1.972 -6.75,-5.406 -2.328,-3.434 -2.328,-7.955 v 0 h 9.656 q 0,7.738 9.219,7.738 v 0 q 3.438,0 5.36,-1.393 1.921,-1.394 1.921,-3.899 z M 629.281,-47 v 7.797 H 614.984 V 0 h -9.609 V -39.203 H 591.281 V -47 Z m 19.11,0 V 0 h -9.61 v -47 z m 45.89,0 v 7.797 H 679.984 V 0 h -9.609 V -39.203 H 656.281 V -47 Z m 34.547,0 h 9.641 v 31.191 q 0,7.77 -4.789,12.29 Q 728.891,1 720.594,1 v 0 q -8.172,0 -12.977,-4.392 -4.804,-4.393 -4.898,-12.068 v 0 V -47 h 9.609 v 31.344 q 0,4.659 2.195,6.798 2.196,2.139 6.071,2.139 v 0 q 8.109,0 8.234,-8.683 v 0 z m 56.453,0 v 7.797 H 770.984 V 0 h -9.609 V -39.203 H 747.281 V -47 Z" id="path59"/>
    </g>
    <g transform="translate(0,131.45643)" style="fill:#20b5cc" id="g65">
      <path d="m 23.438,-19 v 3.797 H 8.703 V 0 H 4.078 v -35 h 21.75 v 3.812 H 8.703 V -19 Z m 30.703,-16 h 4.656 v 23.477 q -0.031,4.886 -3.125,7.989 -3.094,3.104 -8.406,3.488 v 0 L 46.031,0 q -5.75,0 -9.179,-3.058 -3.43,-3.057 -3.477,-8.419 v 0 V -35 h 4.578 v 23.337 q 0,3.726 2.102,5.804 2.101,2.078 5.976,2.078 v 0 q 3.938,0 6.024,-2.063 2.086,-2.062 2.086,-5.803 v 0 z m -15.703,-5.531 v 0 q 0,-1.094 0.664,-1.828 0.664,-0.735 1.961,-0.735 1.296,0 1.976,0.735 0.68,0.734 0.68,1.82 0,1.086 -0.68,1.812 -0.68,0.727 -1.976,0.727 -1.297,0 -1.961,-0.727 -0.664,-0.726 -0.664,-1.804 z m 10.375,0.023 v 0 q 0,-1.068 0.656,-1.811 0.656,-0.744 1.961,-0.744 1.304,0 1.984,0.744 0.68,0.743 0.68,1.811 0,1.068 -0.68,1.788 -0.68,0.72 -1.984,0.72 -1.305,0 -1.961,-0.72 -0.656,-0.72 -0.656,-1.788 z M 88.578,0 80.953,-14.219 h -8.25 V 0 h -4.656 v -35 h 11.625 q 5.937,0 9.133,2.679 3.195,2.679 3.195,7.82 v 0 q 0,3.262 -1.773,5.677 -1.774,2.415 -4.93,3.627 v 0 l 8.25,14.9 V 0 Z M 72.703,-31.188 V -18 h 7.11 q 3.453,0 5.492,-1.772 2.039,-1.773 2.039,-4.729 v 0 q 0,-3.235 -1.938,-4.953 -1.937,-1.718 -5.609,-1.734 v 0 z M 125.797,0 h -9.719 v -35 h 9.906 q 4.579,0 8.102,2.017 3.523,2.017 5.445,5.748 1.922,3.73 1.938,8.559 v 0 2.227 q 0,4.954 -1.914,8.684 -1.914,3.731 -5.477,5.725 -3.562,1.993 -8.281,2.04 z m 0.312,-31.188 h -5.406 v 27.407 h 4.875 q 5.36,0 8.336,-3.315 2.977,-3.315 2.977,-9.447 v 0 -2.039 q 0,-5.96 -2.813,-9.259 -2.812,-3.3 -7.969,-3.347 z m 25.563,-3.812 9.109,17.57 9.172,-17.57 h 5.25 l -12.109,21.947 V 0 h -4.625 V -13.053 L 146.359,-35 Z m 57.391,0 V 0 h -4.657 L 186.734,-26.978 V 0 h -4.656 v -35 h 4.656 l 17.719,27.087 V -35 Z m 33.75,35 -3.344,-9.203 H 224.75 L 221.453,0 h -4.781 l 13.406,-35 h 4.063 L 247.563,0 Z M 232.109,-29.299 226.156,-13 h 11.938 z M 255.078,-35 h 5.985 L 272.531,-6.449 284.016,-35 h 6 V 0 h -4.625 v -13.629 l 0.437,-14.72 L 274.297,0 h -3.547 l -11.5,-28.271 0.453,14.642 V 0 h -4.625 z m 49.969,0 V 0 h -4.641 V -35 Z M 337.438,0 325,-16.277 l -4.297,4.455 V 0 h -4.625 v -35 h 4.625 v 17.305 L 336.313,-35 h 5.593 L 328.078,-19.548 342.984,0 Z m 48,0 -12.438,-16.277 -4.297,4.455 V 0 h -4.625 v -35 h 4.625 v 17.305 L 384.313,-35 h 5.593 L 376.078,-19.548 390.984,0 Z m 38.64,-19.084 v 2.214 q 0,5.145 -1.734,8.989 -1.735,3.843 -4.914,5.862 Q 414.25,0 410,0 v 0 q -4.141,0 -7.352,-2.035 -3.21,-2.034 -4.984,-5.8 -1.773,-3.765 -1.82,-8.723 v 0 -2.526 q 0,-5.051 1.758,-8.926 1.757,-3.874 4.984,-5.932 3.227,-2.058 7.367,-2.058 v 0 q 4.219,0 7.438,2.035 3.218,2.034 4.953,5.893 1.734,3.859 1.734,8.988 z m -4.594,2.557 v -2.603 q 0,-6.232 -2.507,-9.559 -2.508,-3.327 -7.024,-3.327 v 0 q -4.39,0 -6.906,3.327 -2.516,3.327 -2.594,9.248 v 0 2.571 q 0,6.03 2.547,9.481 2.547,3.451 7,3.451 v 0 q 4.484,0 6.945,-3.256 2.461,-3.257 2.539,-9.333 z M 433.078,-35 h 5.985 L 450.531,-6.449 462.016,-35 h 6 V 0 h -4.625 v -13.629 l 0.437,-14.72 L 452.297,0 h -3.547 l -11.5,-28.271 0.453,14.642 V 0 h -4.625 z m 58.906,21.781 h -8.281 V 0 h -4.625 v -35 h 12.953 q 5.766,0 9.032,2.996 3.265,2.995 3.265,7.95 v 0 q 0,5.211 -3.195,8.023 -3.195,2.812 -9.149,2.812 z m -8.281,-17.969 V -17 h 8.328 q 3.703,0 5.68,-1.804 1.977,-1.803 1.977,-5.201 v 0 q 0,-3.237 -1.977,-5.178 -1.977,-1.94 -5.414,-2.005 v 0 z M 517.734,-35 v 31.219 h 16.641 V 0 h -21.297 v -35 z m 44.188,15 v 3.781 h -15.219 v 12.438 h 17.688 V 0 h -22.313 v -35 h 22.063 v 3.812 H 546.703 V -20 Z m 13.141,-15 8.468,13.411 8.422,-13.411 h 5.438 L 586.297,-17.648 597.656,0 h -5.484 L 583.531,-13.66 574.844,0 h -5.469 L 580.75,-17.648 569.641,-35 Z m 50.859,15 v 3.781 h -15.219 v 12.438 h 17.688 V 0 h -22.313 v -35 h 22.063 v 3.812 H 610.703 V -20 Z m 30.656,20 -7.625,-14.219 h -8.25 V 0 h -4.656 v -35 h 11.625 q 5.937,0 9.133,2.679 3.195,2.679 3.195,7.82 v 0 q 0,3.262 -1.773,5.677 -1.774,2.415 -4.93,3.627 v 0 l 8.25,14.9 V 0 Z M 640.703,-31.188 V -18 h 7.11 q 3.453,0 5.492,-1.772 2.039,-1.773 2.039,-4.729 v 0 q 0,-3.235 -1.938,-4.953 -1.937,-1.718 -5.609,-1.734 v 0 z" id="path63"/>
    </g>
    <g transform="translate(0,187.9092)" style="fill:#20b5cc" id="g69">
      <path d="m 28.344,-35 v 3.812 H 17.047 V 0 H 12.438 V -31.188 H 1.188 V -35 Z m 27.578,15 v 3.781 H 40.703 V -3.781 H 58.391 V 0 H 36.078 v -35 h 22.063 v 3.812 H 40.703 V -20 Z m 31.328,8.375 h 4.656 Q 91.25,-6.063 87.789,-3.031 84.328,0 78.594,0 v 0 q -6.219,0 -9.969,-4.451 -3.75,-4.452 -3.75,-11.92 v 0 -3.367 q 0,-4.88 1.742,-8.583 1.742,-3.703 4.953,-5.691 Q 74.781,-36 79,-36 v 0 q 5.594,0 8.969,3.125 3.375,3.125 3.937,8.641 v 0 H 87.25 q -0.609,-4.188 -2.617,-6.071 -2.008,-1.883 -5.633,-1.883 v 0 q -4.437,0 -6.953,3.273 -2.516,3.272 -2.516,9.302 v 0 3.397 q 0,5.688 2.383,9.061 2.383,3.374 6.68,3.374 v 0 q 3.859,0 5.922,-1.75 2.062,-1.75 2.734,-6.094 z M 128.063,-35 V 0 h -4.657 V -16.219 H 105.703 V 0 h -4.625 v -35 h 4.625 v 15 h 17.703 v -15 z m 38,0 V 0 h -4.657 L 143.734,-26.978 V 0 h -4.656 v -35 h 4.656 l 17.719,27.087 V -35 Z m 14.984,0 V 0 h -4.641 v -35 z m 21.375,18.894 v 0 q -5.953,-1.699 -8.672,-4.194 -2.719,-2.494 -2.719,-6.143 v 0 q 0,-4.147 3.321,-6.852 3.32,-2.705 8.617,-2.705 v 0 q 3.625,0 6.461,1.398 2.836,1.399 4.39,3.86 1.555,2.461 1.555,5.383 v 0 h -4.656 q 0,-3.188 -2.024,-5.008 -2.023,-1.821 -5.726,-1.821 v 0 q -3.422,0 -5.336,1.503 -1.914,1.503 -1.914,4.165 v 0 q 0,2.133 1.82,3.613 1.82,1.479 6.195,2.709 4.375,1.23 6.852,2.704 2.477,1.474 3.664,3.455 1.188,1.981 1.188,4.649 v 0 q 0,4.258 -3.329,6.824 Q 208.781,0 203.219,0 v 0 q -3.625,0 -6.758,-1.391 -3.133,-1.39 -4.836,-3.797 -1.703,-2.406 -1.703,-5.468 v 0 h 4.656 q 0,3.172 2.352,5.023 2.351,1.852 6.289,1.852 v 0 q 3.672,0 5.625,-1.496 1.953,-1.496 1.953,-4.066 0,-2.571 -1.813,-3.981 -1.812,-1.41 -6.562,-2.782 z m 42.828,4.481 h 4.656 q -0.656,5.562 -4.117,8.594 Q 242.328,0 236.594,0 v 0 q -6.219,0 -9.969,-4.451 -3.75,-4.452 -3.75,-11.92 v 0 -3.367 q 0,-4.88 1.742,-8.583 1.742,-3.703 4.953,-5.691 Q 232.781,-36 237,-36 v 0 q 5.594,0 8.969,3.125 3.375,3.125 3.937,8.641 v 0 h -4.656 q -0.609,-4.188 -2.617,-6.071 -2.008,-1.883 -5.633,-1.883 v 0 q -4.437,0 -6.953,3.273 -2.516,3.272 -2.516,9.302 v 0 3.397 q 0,5.688 2.383,9.061 2.383,3.374 6.68,3.374 v 0 q 3.859,0 5.922,-1.75 2.062,-1.75 2.734,-6.094 z M 286.063,-35 V 0 h -4.657 V -16.219 H 263.703 V 0 h -4.625 v -35 h 4.625 v 15 h 17.703 v -15 z m 29.859,15 v 3.781 h -15.219 v 12.438 h 17.688 V 0 h -22.313 v -35 h 22.063 v 3.812 H 300.703 V -20 Z m 31.656,20 -7.625,-14.219 h -8.25 V 0 h -4.656 v -35 h 11.625 q 5.937,0 9.133,2.679 3.195,2.679 3.195,7.82 v 0 q 0,3.262 -1.773,5.677 -1.774,2.415 -4.93,3.627 v 0 l 8.25,14.9 V 0 Z M 331.703,-31.188 V -18 h 7.11 q 3.453,0 5.492,-1.772 2.039,-1.773 2.039,-4.729 v 0 q 0,-3.235 -1.938,-4.953 -1.937,-1.718 -5.609,-1.734 v 0 z m 53.719,15.082 v 0 q -5.953,-1.699 -8.672,-4.194 -2.719,-2.494 -2.719,-6.143 v 0 q 0,-4.147 3.321,-6.852 3.32,-2.705 8.617,-2.705 v 0 q 3.625,0 6.461,1.398 2.836,1.399 4.39,3.86 1.555,2.461 1.555,5.383 v 0 h -4.656 q 0,-3.188 -2.024,-5.008 -2.023,-1.821 -5.726,-1.821 v 0 q -3.422,0 -5.336,1.503 -1.914,1.503 -1.914,4.165 v 0 q 0,2.133 1.82,3.613 1.82,1.479 6.195,2.709 4.375,1.23 6.852,2.704 2.477,1.474 3.664,3.455 1.188,1.981 1.188,4.649 v 0 q 0,4.258 -3.329,6.824 Q 391.781,0 386.219,0 v 0 q -3.625,0 -6.758,-1.391 -3.133,-1.39 -4.836,-3.797 -1.703,-2.406 -1.703,-5.468 v 0 h 4.656 q 0,3.172 2.352,5.023 2.351,1.852 6.289,1.852 v 0 q 3.672,0 5.625,-1.496 1.953,-1.496 1.953,-4.066 0,-2.571 -1.813,-3.981 -1.812,-1.41 -6.562,-2.782 z m 22.25,-18.894 9.109,17.57 9.172,-17.57 h 5.25 l -12.109,21.947 V 0 h -4.625 V -13.053 L 402.359,-35 Z m 40.75,18.894 v 0 q -5.953,-1.699 -8.672,-4.194 -2.719,-2.494 -2.719,-6.143 v 0 q 0,-4.147 3.321,-6.852 3.32,-2.705 8.617,-2.705 v 0 q 3.625,0 6.461,1.398 2.836,1.399 4.39,3.86 1.555,2.461 1.555,5.383 v 0 h -4.656 q 0,-3.188 -2.024,-5.008 -2.023,-1.821 -5.726,-1.821 v 0 q -3.422,0 -5.336,1.503 -1.914,1.503 -1.914,4.165 v 0 q 0,2.133 1.82,3.613 1.82,1.479 6.195,2.709 4.375,1.23 6.852,2.704 2.477,1.474 3.664,3.455 1.188,1.981 1.188,4.649 v 0 q 0,4.258 -3.329,6.824 Q 454.781,0 449.219,0 v 0 q -3.625,0 -6.758,-1.391 -3.133,-1.39 -4.836,-3.797 -1.703,-2.406 -1.703,-5.468 v 0 h 4.656 q 0,3.172 2.352,5.023 2.351,1.852 6.289,1.852 v 0 q 3.672,0 5.625,-1.496 1.953,-1.496 1.953,-4.066 0,-2.571 -1.813,-3.981 -1.812,-1.41 -6.562,-2.782 z M 494.344,-35 v 3.812 H 483.047 V 0 h -4.609 v -31.188 h -11.25 V -35 Z m 27.578,15 v 3.781 h -15.219 v 12.438 h 17.688 V 0 h -22.313 v -35 h 22.063 v 3.812 H 506.703 V -20 Z m 10.156,-15 h 5.985 L 549.531,-6.449 561.016,-35 h 6 V 0 h -4.625 v -13.629 l 0.437,-14.72 L 551.297,0 h -3.547 l -11.5,-28.271 0.453,14.642 V 0 h -4.625 z m 65.844,15 v 3.781 h -15.219 v 12.438 h 17.688 V 0 h -22.313 v -35 h 22.063 v 3.812 H 582.703 V -20 Z" id="path67"/>
    </g>
    <g transform="translate(0,244.36197)" style="fill:#20b5cc" id="g73">
      <path d="m 4.078,-35 h 5.985 L 21.531,-6.449 33.016,-35 h 6 V 0 H 34.391 V -13.629 L 34.828,-28.349 23.297,0 H 19.75 L 8.25,-28.271 8.703,-13.629 V 0 H 4.078 Z M 72.813,0 69.469,-9.203 H 54.75 L 51.453,0 h -4.781 l 13.406,-35 h 4.063 L 77.563,0 Z M 62.109,-29.299 56.156,-13 H 68.094 Z M 110,-18 v 12.897 q -1.781,2.567 -4.977,3.835 Q 101.828,0 97.578,0 v 0 q -4.297,0 -7.625,-2.011 -3.328,-2.012 -5.148,-5.714 -1.821,-3.703 -1.867,-8.599 v 0 -3.056 q 0,-7.905 3.703,-12.262 Q 90.344,-36 97.047,-36 v 0 q 5.5,0 8.851,2.812 3.352,2.813 4.102,7.969 v 0 h -4.625 q -1.312,-6.969 -8.297,-6.969 v 0 q -4.656,0 -7.055,3.257 -2.398,3.257 -2.429,9.443 v 0 2.851 q 0,5.891 2.703,9.373 2.703,3.483 7.312,3.483 v 0 q 2.594,0 4.547,-0.588 1.953,-0.588 3.235,-1.967 v 0 -7.898 H 97.266 V -18 Z m 20.797,18 h -9.719 v -35 h 9.906 q 4.579,0 8.102,2.017 3.523,2.017 5.445,5.748 1.922,3.73 1.938,8.559 v 0 2.227 q 0,4.954 -1.914,8.684 -1.914,3.731 -5.477,5.725 -3.562,1.993 -8.281,2.04 z m 0.312,-31.188 h -5.406 v 27.407 h 4.875 q 5.36,0 8.336,-3.315 2.977,-3.315 2.977,-9.447 v 0 -2.039 q 0,-5.96 -2.813,-9.259 -2.812,-3.3 -7.969,-3.347 z M 174.922,-20 v 3.781 h -15.219 v 12.438 h 17.688 V 0 h -22.313 v -35 h 22.063 v 3.812 H 159.703 V -20 Z M 198.25,0 h -12.172 v -35 h 11.485 q 5.703,0 8.585,2.364 2.883,2.364 2.883,7.013 v 0 q 0,2.458 -1.398,4.352 -1.399,1.894 -3.805,2.943 v 0 q 2.844,0.791 4.492,3 1.649,2.21 1.649,5.28 v 0 q 0,4.683 -3.063,7.365 Q 203.844,0 198.25,0 Z m 0.172,-16.281 h -7.719 v 12.5 h 7.641 q 3.234,0 5.109,-1.661 1.875,-1.661 1.875,-4.566 v 0 q 0,-6.273 -6.906,-6.273 z m -7.719,-14.907 V -20 h 7 q 3.031,0 4.852,-1.52 1.82,-1.52 1.82,-4.136 v 0 q 0,-2.899 -1.687,-4.215 -1.688,-1.317 -5.125,-1.317 v 0 z M 239.141,-35 h 4.656 v 23.477 q -0.031,4.886 -3.125,7.989 -3.094,3.104 -8.406,3.488 v 0 L 231.031,0 q -5.75,0 -9.179,-3.058 -3.43,-3.057 -3.477,-8.419 v 0 V -35 h 4.578 v 23.337 q 0,3.726 2.102,5.804 2.101,2.078 5.976,2.078 v 0 q 3.938,0 6.024,-2.063 2.086,-2.062 2.086,-5.803 v 0 z m 35.437,35 -7.625,-14.219 h -8.25 V 0 h -4.656 v -35 h 11.625 q 5.937,0 9.133,2.679 3.195,2.679 3.195,7.82 v 0 q 0,3.262 -1.773,5.677 -1.774,2.415 -4.93,3.627 v 0 l 8.25,14.9 V 0 Z M 258.703,-31.188 V -18 h 7.11 q 3.453,0 5.492,-1.772 2.039,-1.773 2.039,-4.729 v 0 q 0,-3.235 -1.938,-4.953 -1.937,-1.718 -5.609,-1.734 v 0 z M 313,-18 v 12.897 q -1.781,2.567 -4.977,3.835 Q 304.828,0 300.578,0 v 0 q -4.297,0 -7.625,-2.011 -3.328,-2.012 -5.148,-5.714 -1.821,-3.703 -1.867,-8.599 v 0 -3.056 q 0,-7.905 3.703,-12.262 Q 293.344,-36 300.047,-36 v 0 q 5.5,0 8.851,2.812 3.352,2.813 4.102,7.969 v 0 h -4.625 q -1.312,-6.969 -8.297,-6.969 v 0 q -4.656,0 -7.055,3.257 -2.398,3.257 -2.429,9.443 v 0 2.851 q 0,5.891 2.703,9.373 2.703,3.483 7.312,3.483 v 0 q 2.594,0 4.547,-0.588 1.953,-0.588 3.235,-1.967 v 0 -7.898 h -8.125 V -18 Z" id="path71"/>
    </g>
  </g>
</svg>