<svg xmlns:dc="http://purl.org/dc/elements/1.1/" xmlns:cc="http://creativecommons.org/ns#" xmlns:rdf="http://www.w3.org/1999/02/22-rdf-syntax-ns#" xmlns:svg="http://www.w3.org/2000/svg" xmlns="http://www.w3.org/2000/svg" xmlns:sodipodi="http://sodipodi.sourceforge.net/DTD/sodipodi-0.dtd" xmlns:inkscape="http://www.inkscape.org/namespaces/inkscape" version="1.1" id="Layer_1" x="0px" y="0px" viewBox="0 0 402.66 66.150002" xml:space="preserve" sodipodi:docname="vt_math.svg" inkscape:version="0.92.5 (2060ec1f9f, 2020-04-08)" viewport="0 0 5120px 840px"><metadata id="metadata105"><rdf:RDF><cc:Work rdf:about=""><dc:format>image/svg+xml</dc:format><dc:type rdf:resource="http://purl.org/dc/dcmitype/StillImage"/></cc:Work></rdf:RDF></metadata><defs id="defs103"/><sodipodi:namedview pagecolor="#ffffff" bordercolor="#666666" borderopacity="1" objecttolerance="10" gridtolerance="10" guidetolerance="10" inkscape:pageopacity="0" inkscape:pageshadow="2" inkscape:window-width="781" inkscape:window-height="480" id="namedview101" showgrid="false" inkscape:zoom="0.39333333" inkscape:cx="201.33" inkscape:cy="33.08" inkscape:window-x="0" inkscape:window-y="27" inkscape:window-maximized="0" inkscape:current-layer="Layer_1"/>
<style type="text/css" id="style2">
	.st0{fill:#871F41;}
	.st1{fill:#E77724;}
</style>
<g id="g98" transform="translate(-98.67,-266.93)">
	<path class="st0" d="m 177.67,267.09 c -8.95,0 -17.18,4.91 -21.44,12.78 l -5.25,9.7 -0.61,1.13 -0.59,1.09 -15.84,29.28 -25.86,-48.34 h 11.5 l 9.26,17.22 4.86,9.04 5.02,-8.95 9.7,-17.31 h 8.39 c 2.02,-2.26 4.39,-4.15 7,-5.64 H 145.12 L 133.8,287.28 122.94,267.09 H 98.67 l 35.24,65.87 19.62,-36.26 3.25,-6.01 0.61,-1.13 3.77,-6.97 c 0.2,-0.38 0.42,-0.75 0.65,-1.11 2.52,-3.98 6.41,-6.83 10.86,-8.07 1.21,-0.34 2.47,-0.55 3.75,-0.64 0.43,-0.03 0.86,-0.04 1.29,-0.04 h 51.36 l -5.19,9.66 h -23.76 l -1.59,2.99 -21.99,41.31 h -11.66 l 19.28,-35.81 4.47,-8.31 H 165.5 c -1.32,2.09 -3.21,5.64 -3.21,5.64 h 16.92 l -23.76,44.12 h 24.48 l 23.58,-44.3 h 23.75 l 11.23,-20.94 z" id="path4" inkscape:connector-curvature="0" style="fill:#871f41"/>
	<rect x="254.25999" y="267.09" class="st1" width="1.88" height="65.860001" id="rect6" style="fill:#e77724"/>
	<g id="g30">
		<path class="st0" d="m 282.31,305.19 -6.76,-14.14 0.18,2.62 v 22.37 h -3.82 v -32.01 h 4.22 l 7.56,16.14 7.6,-16.14 h 4.22 v 32.01 h -3.82 v -22.32 l 0.13,-2.58 -6.76,14.05 z" id="path8" inkscape:connector-curvature="0" style="fill:#871f41"/>
		<path class="st0" d="m 298.76,316.03 8.05,-32.01 h 4.67 l 8.05,32.01 h -4.05 l -1.73,-7.38 h -9.2 l -1.73,7.38 z m 6.63,-11.02 h 7.51 l -3.73,-16.18 z" id="path10" inkscape:connector-curvature="0" style="fill:#871f41"/>
		<path class="st0" d="m 327.13,316.03 v -28.55 h -6.85 v -3.47 h 17.7 v 3.47 h -6.8 v 28.55 z" id="path12" inkscape:connector-curvature="0" style="fill:#871f41"/>
		<path class="st0" d="m 341.27,316.03 v -32.01 h 4.05 v 13.74 h 9.52 v -13.74 h 4 v 32.01 h -4 v -14.81 h -9.52 v 14.81 z" id="path14" inkscape:connector-curvature="0" style="fill:#871f41"/>
		<path class="st0" d="m 379.69,316.03 h -15.07 v -32.01 h 15.07 v 3.47 h -11.03 v 10.27 h 8.45 v 3.47 h -8.45 v 11.34 h 11.03 z" id="path16" inkscape:connector-curvature="0" style="fill:#871f41"/>
		<path class="st0" d="m 394.36,305.19 -6.76,-14.14 0.18,2.62 v 22.37 h -3.82 v -32.01 h 4.22 l 7.56,16.14 7.6,-16.14 h 4.22 v 32.01 h -3.82 v -22.32 l 0.13,-2.58 -6.76,14.05 z" id="path18" inkscape:connector-curvature="0" style="fill:#871f41"/>
		<path class="st0" d="m 410.81,316.03 8.05,-32.01 h 4.67 l 8.05,32.01 h -4.05 l -1.73,-7.38 h -9.2 l -1.73,7.38 z m 6.62,-11.02 h 7.51 l -3.73,-16.18 z" id="path20" inkscape:connector-curvature="0" style="fill:#871f41"/>
		<path class="st0" d="m 439.18,316.03 v -28.55 h -6.85 v -3.47 h 17.7 v 3.47 h -6.8 v 28.55 z" id="path22" inkscape:connector-curvature="0" style="fill:#871f41"/>
		<path class="st0" d="m 453.31,316.03 v -32.01 h 4.05 v 32.01 z" id="path24" inkscape:connector-curvature="0" style="fill:#871f41"/>
		<path class="st0" d="m 471.59,313.01 c 2.89,0 4.76,-1.2 4.76,-4.22 v -4.31 h 3.78 v 5.07 c 0,4.4 -3.38,6.94 -8.71,6.94 -5.29,0 -8.58,-2.53 -8.58,-6.94 v -19.03 c 0,-4.4 3.42,-6.94 8.76,-6.94 5.25,0 8.54,2.53 8.54,6.94 v 5.07 h -3.78 v -4.31 c 0,-2.8 -1.87,-4.22 -4.76,-4.22 -3.25,0 -4.71,1.42 -4.71,4.22 v 17.52 c -0.01,3.01 1.45,4.21 4.7,4.21 z" id="path26" inkscape:connector-curvature="0" style="fill:#871f41"/>
		<path class="st0" d="m 501.33,308.52 c 0,5.6 -2.76,7.96 -7.78,7.96 h -2.04 c -4.71,0 -7.29,-1.82 -7.29,-6.49 v -3.78 h 3.87 v 2.8 c 0,3.29 1.16,4.09 3.56,4.09 h 1.73 c 2.45,0 4,-0.49 4,-4.4 v -2.49 c 0,-2.27 -0.8,-3.78 -3.47,-4.45 l -3.65,-0.89 c -3.78,-0.89 -5.6,-2.53 -5.6,-7.83 v -2 c 0,-4.89 2.62,-7.47 7.38,-7.47 h 0.84 c 4.67,0 7.6,2.36 7.6,6.49 v 3.47 h -3.87 v -2.67 c 0,-2.8 -1.42,-3.91 -3.74,-3.91 h -0.76 c -2.45,0 -3.56,1.07 -3.56,4.36 v 1.51 c 0,3.07 0.53,3.78 3.02,4.45 l 3.38,0.84 c 4.85,1.29 6.36,3.42 6.36,8.18 v 2.23 z" id="path28" inkscape:connector-curvature="0" style="fill:#871f41"/>
	</g>
	<g id="g64">
		<path class="st0" d="m 274.98,277.5 c 1.09,0 1.81,-0.46 1.81,-1.61 v -1.56 h 1.18 v 1.8 c 0,1.56 -1.2,2.46 -3.05,2.46 -1.84,0 -3.01,-0.9 -3.01,-2.46 v -6.74 c 0,-1.56 1.2,-2.46 3.07,-2.46 1.83,0 2.99,0.9 2.99,2.46 v 1.8 h -1.18 v -1.56 c 0,-1.07 -0.72,-1.61 -1.81,-1.61 -1.24,0 -1.81,0.54 -1.81,1.61 v 6.27 c 0,1.14 0.57,1.6 1.81,1.6 z" id="path32" inkscape:connector-curvature="0" style="fill:#871f41"/>
		<path class="st0" d="m 286.46,269.55 v 6.42 c 0,1.65 -1.17,2.61 -3.18,2.61 -2.03,0 -3.21,-0.96 -3.21,-2.61 v -6.42 c 0,-1.65 1.18,-2.61 3.21,-2.61 2.02,-0.01 3.18,0.95 3.18,2.61 z m -5.13,0.34 v 5.73 c 0,1.34 0.6,1.87 1.95,1.87 1.32,0 1.94,-0.54 1.94,-1.87 v -5.73 c 0,-1.34 -0.61,-1.87 -1.94,-1.87 -1.35,0 -1.95,0.53 -1.95,1.87 z" id="path34" inkscape:connector-curvature="0" style="fill:#871f41"/>
		<path class="st0" d="m 293.82,278.43 h -5.12 v -11.34 h 1.26 v 10.27 h 3.86 z" id="path36" inkscape:connector-curvature="0" style="fill:#871f41"/>
		<path class="st0" d="m 300.35,278.43 h -5.12 v -11.34 h 1.26 v 10.27 h 3.86 z" id="path38" inkscape:connector-curvature="0" style="fill:#871f41"/>
		<path class="st0" d="m 307.08,278.43 h -5.21 v -11.34 h 5.21 v 1.09 h -3.95 v 3.84 h 3.02 v 1.09 h -3.02 v 4.25 h 3.95 z" id="path40" inkscape:connector-curvature="0" style="fill:#871f41"/>
		<path class="st0" d="M 314.32,278.43 314,277.71 c -0.47,0.57 -1.26,0.88 -2.24,0.88 -1.81,0 -2.96,-0.9 -2.96,-2.46 v -6.74 c 0,-1.56 1.21,-2.46 3.12,-2.46 1.86,0 3.05,0.9 3.05,2.46 v 1.8 h -1.2 v -1.56 c 0,-1.07 -0.74,-1.61 -1.86,-1.61 -1.28,0 -1.86,0.54 -1.86,1.61 v 6.19 c 0,1.15 0.58,1.69 1.86,1.69 1.09,0 1.81,-0.5 1.86,-1.59 v -1.97 h -1.86 v -1.09 h 3.05 v 5.57 z" id="path42" inkscape:connector-curvature="0" style="fill:#871f41"/>
		<path class="st0" d="m 322.42,278.43 h -5.21 v -11.34 h 5.21 v 1.09 h -3.95 v 3.84 h 3.02 v 1.09 h -3.02 v 4.25 h 3.95 z" id="path44" inkscape:connector-curvature="0" style="fill:#871f41"/>
		<path class="st0" d="m 333.63,269.55 v 6.42 c 0,1.65 -1.17,2.61 -3.18,2.61 -2.03,0 -3.21,-0.96 -3.21,-2.61 v -6.42 c 0,-1.65 1.18,-2.61 3.21,-2.61 2.01,-0.01 3.18,0.95 3.18,2.61 z m -5.14,0.34 v 5.73 c 0,1.34 0.6,1.87 1.95,1.87 1.32,0 1.94,-0.54 1.94,-1.87 v -5.73 c 0,-1.34 -0.61,-1.87 -1.94,-1.87 -1.35,0 -1.95,0.53 -1.95,1.87 z" id="path46" inkscape:connector-curvature="0" style="fill:#871f41"/>
		<path class="st0" d="m 335.96,278.43 v -11.34 h 5.21 v 1.09 h -3.95 v 4.31 h 3.02 v 1.09 h -3.02 v 4.85 z" id="path48" inkscape:connector-curvature="0" style="fill:#871f41"/>
		<path class="st0" d="m 351.46,275.84 c 0,1.92 -0.96,2.74 -2.71,2.74 h -0.74 c -1.62,0 -2.52,-0.65 -2.52,-2.3 v -1.31 h 1.2 V 276 c 0,1.21 0.44,1.53 1.37,1.53 h 0.63 c 0.94,0 1.54,-0.17 1.54,-1.65 v -0.9 c 0,-0.87 -0.3,-1.45 -1.31,-1.7 l -1.35,-0.33 c -1.29,-0.3 -1.92,-0.85 -1.92,-2.68 v -0.74 c 0,-1.7 0.9,-2.6 2.55,-2.6 h 0.31 c 1.62,0 2.63,0.83 2.63,2.3 v 1.24 h -1.18 v -1.01 c 0,-1.07 -0.58,-1.48 -1.45,-1.48 h -0.28 c -0.93,0 -1.37,0.39 -1.37,1.64 v 0.57 c 0,1.15 0.21,1.4 1.13,1.65 l 1.28,0.31 c 1.65,0.44 2.19,1.23 2.19,2.83 z" id="path50" inkscape:connector-curvature="0" style="fill:#871f41"/>
		<path class="st0" d="m 356.42,277.5 c 1.09,0 1.81,-0.46 1.81,-1.61 v -1.56 h 1.18 v 1.8 c 0,1.56 -1.2,2.46 -3.06,2.46 -1.84,0 -3.01,-0.9 -3.01,-2.46 v -6.74 c 0,-1.56 1.2,-2.46 3.07,-2.46 1.83,0 2.99,0.9 2.99,2.46 v 1.8 h -1.18 v -1.56 c 0,-1.07 -0.72,-1.61 -1.81,-1.61 -1.24,0 -1.81,0.54 -1.81,1.61 v 6.27 c 0.01,1.14 0.57,1.6 1.82,1.6 z" id="path52" inkscape:connector-curvature="0" style="fill:#871f41"/>
		<path class="st0" d="m 361.61,278.43 v -11.34 h 1.26 v 11.34 z" id="path54" inkscape:connector-curvature="0" style="fill:#871f41"/>
		<path class="st0" d="m 370.51,278.43 h -5.21 v -11.34 h 5.21 v 1.09 h -3.95 v 3.84 h 3.02 v 1.09 h -3.02 v 4.25 h 3.95 z" id="path56" inkscape:connector-curvature="0" style="fill:#871f41"/>
		<path class="st0" d="m 372.35,278.43 v -11.34 h 1.01 l 3.92,7.97 0.36,0.93 -0.03,-0.88 v -8.02 h 1.15 v 11.34 h -1.01 l -3.92,-7.98 -0.38,-0.96 0.05,0.85 v 8.09 z" id="path58" inkscape:connector-curvature="0" style="fill:#871f41"/>
		<path class="st0" d="m 384.15,277.5 c 1.09,0 1.81,-0.46 1.81,-1.61 v -1.56 h 1.18 v 1.8 c 0,1.56 -1.2,2.46 -3.06,2.46 -1.84,0 -3.01,-0.9 -3.01,-2.46 v -6.74 c 0,-1.56 1.2,-2.46 3.07,-2.46 1.83,0 2.99,0.9 2.99,2.46 v 1.8 h -1.18 v -1.56 c 0,-1.07 -0.72,-1.61 -1.81,-1.61 -1.24,0 -1.81,0.54 -1.81,1.61 v 6.27 c 0.01,1.14 0.58,1.6 1.82,1.6 z" id="path60" inkscape:connector-curvature="0" style="fill:#871f41"/>
		<path class="st0" d="m 394.56,278.43 h -5.21 v -11.34 h 5.21 v 1.09 h -3.95 v 3.84 h 3.02 v 1.09 h -3.02 v 4.25 h 3.95 z" id="path62" inkscape:connector-curvature="0" style="fill:#871f41"/>
	</g>
	<g id="g96">
		<g id="g90">
			<polygon class="st1" points="361.5,321.72 361.5,323.7 358.2,323.7 358.2,332.96 356.14,332.96 356.14,323.7 352.83,323.7 352.83,321.72 " id="polygon66" style="fill:#e77724"/>
			<polygon class="st1" points="363.22,321.73 370.43,321.73 370.43,323.69 365.27,323.69 365.27,326.31 369.46,326.31 369.46,328.28 365.27,328.28 365.27,330.99 370.43,330.99 370.43,332.96 363.22,332.96 " id="polygon68" style="fill:#e77724"/>
			<path class="st1" d="m 373.84,327.34 c 0,0.51 0.1,0.99 0.29,1.43 0.2,0.45 0.46,0.84 0.8,1.17 0.34,0.33 0.73,0.59 1.18,0.79 0.45,0.19 0.92,0.29 1.43,0.29 0.39,0 0.76,-0.06 1.11,-0.18 0.35,-0.12 0.67,-0.28 0.97,-0.48 0.12,-0.07 0.24,-0.13 0.37,-0.17 0.13,-0.04 0.27,-0.06 0.42,-0.06 0.23,0 0.43,0.04 0.6,0.11 0.16,0.07 0.32,0.18 0.46,0.32 l 0.48,0.48 c -0.29,0.31 -0.61,0.6 -0.95,0.85 -0.34,0.25 -0.7,0.47 -1.07,0.64 -0.37,0.18 -0.76,0.31 -1.16,0.41 -0.4,0.09 -0.81,0.14 -1.22,0.14 -0.79,0 -1.54,-0.15 -2.24,-0.45 -0.7,-0.3 -1.31,-0.71 -1.83,-1.23 -0.52,-0.52 -0.93,-1.12 -1.23,-1.82 -0.3,-0.69 -0.45,-1.44 -0.45,-2.23 0,-0.53 0.07,-1.04 0.2,-1.52 0.14,-0.49 0.33,-0.94 0.58,-1.37 0.25,-0.42 0.55,-0.81 0.9,-1.16 0.35,-0.35 0.74,-0.65 1.16,-0.9 0.43,-0.25 0.89,-0.44 1.38,-0.58 0.49,-0.14 1,-0.2 1.53,-0.2 0.42,0 0.83,0.05 1.22,0.14 0.4,0.09 0.79,0.23 1.16,0.41 0.37,0.18 0.73,0.39 1.07,0.64 0.34,0.25 0.65,0.53 0.95,0.85 l -0.48,0.48 c -0.14,0.14 -0.29,0.24 -0.47,0.33 -0.17,0.08 -0.37,0.12 -0.59,0.12 -0.29,0 -0.55,-0.08 -0.79,-0.25 -0.3,-0.2 -0.63,-0.36 -0.97,-0.48 -0.35,-0.11 -0.72,-0.17 -1.1,-0.17 -0.51,0 -0.98,0.1 -1.43,0.29 -0.45,0.19 -0.84,0.46 -1.18,0.79 -0.34,0.33 -0.6,0.72 -0.8,1.16 -0.2,0.43 -0.3,0.9 -0.3,1.41" id="path70" inkscape:connector-curvature="0" style="fill:#e77724"/>
			<polygon class="st1" points="391.78,328.3 386.26,328.3 386.26,332.96 384.21,332.96 384.21,321.73 386.26,321.73 386.26,326.34 391.78,326.34 391.78,321.73 393.84,321.73 393.84,332.96 391.78,332.96 " id="polygon72" style="fill:#e77724"/>
			<path class="st1" d="m 277.87,329.55 c 0,0 1.01,-2.32 1.52,-3.48 0.51,-1.15 1.01,-2.31 1.52,-3.48 0.11,-0.27 0.29,-0.48 0.54,-0.63 0.24,-0.15 0.51,-0.23 0.8,-0.23 h 1.28 l -4.9,11.23 h -1.86 l -4.9,-11.23 h 1.27 c 0.14,0 0.28,0.02 0.42,0.06 0.14,0.04 0.27,0.1 0.39,0.18 0.12,0.08 0.23,0.17 0.32,0.27 0.09,0.1 0.17,0.22 0.22,0.34 l 3.03,6.95 0.18,0.41 z" id="path74" inkscape:connector-curvature="0" style="fill:#e77724"/>
			<rect x="285.26001" y="321.73001" class="st1" width="2.0599999" height="11.23" id="rect76" style="fill:#e77724"/>
			<path class="st1" d="m 310.4,326.95 v 4.71 c -0.28,0.28 -0.59,0.51 -0.92,0.7 -0.33,0.18 -0.67,0.33 -1.04,0.43 -0.36,0.11 -0.74,0.18 -1.12,0.22 -0.39,0.04 -0.78,0.06 -1.18,0.06 -0.79,0 -1.54,-0.15 -2.23,-0.45 -0.69,-0.3 -1.3,-0.71 -1.83,-1.23 -0.52,-0.52 -0.93,-1.12 -1.23,-1.82 -0.3,-0.7 -0.45,-1.44 -0.45,-2.24 0,-0.53 0.07,-1.03 0.2,-1.52 0.14,-0.49 0.33,-0.94 0.58,-1.37 0.25,-0.42 0.55,-0.81 0.9,-1.16 0.35,-0.35 0.74,-0.65 1.16,-0.9 0.43,-0.25 0.88,-0.44 1.37,-0.58 0.49,-0.13 1,-0.2 1.52,-0.2 0.42,0 0.83,0.05 1.23,0.14 0.4,0.09 0.79,0.23 1.16,0.41 0.37,0.18 0.73,0.39 1.06,0.64 0.34,0.25 0.66,0.53 0.95,0.85 l -0.47,0.48 c -0.15,0.15 -0.3,0.27 -0.47,0.34 -0.17,0.07 -0.36,0.11 -0.58,0.11 -0.29,0 -0.56,-0.08 -0.8,-0.25 -0.3,-0.2 -0.62,-0.36 -0.97,-0.48 -0.35,-0.11 -0.72,-0.17 -1.11,-0.17 -0.5,0 -0.98,0.1 -1.42,0.29 -0.45,0.19 -0.84,0.46 -1.18,0.79 -0.34,0.33 -0.6,0.72 -0.8,1.16 -0.2,0.44 -0.29,0.92 -0.29,1.42 0,0.52 0.1,1 0.31,1.45 0.2,0.45 0.48,0.84 0.82,1.17 0.35,0.33 0.75,0.59 1.2,0.78 0.46,0.19 0.94,0.28 1.44,0.28 0.25,-0.01 0.49,-0.03 0.75,-0.06 0.21,-0.03 0.44,-0.08 0.69,-0.15 0.24,-0.07 0.47,-0.17 0.67,-0.29 v -1.58 c -0.22,-0.01 -0.43,-0.01 -0.65,-0.01 -0.21,0 -0.4,-0.04 -0.56,-0.12 -0.17,-0.08 -0.3,-0.21 -0.39,-0.4 -0.1,-0.19 -0.15,-0.46 -0.15,-0.83 v -0.63 h 3.83 z" id="path78" inkscape:connector-curvature="0" style="fill:#e77724"/>
			<rect x="313.72" y="321.73001" class="st1" width="2.0599999" height="11.23" id="rect80" style="fill:#e77724"/>
			<path class="st1" d="m 321.22,324.56 v 8.4 h -2.05 v -11.23 h 1.81 c 0.25,0 0.47,0.04 0.66,0.11 0.19,0.07 0.34,0.19 0.45,0.34 0.78,1.11 4.99,7.06 4.99,7.06 v -7.51 h 2.05 v 11.23 h -1.9 z" id="path82" inkscape:connector-curvature="0" style="fill:#e77724"/>
			<rect x="332.53" y="321.73001" class="st1" width="2.0599999" height="11.23" id="rect84" style="fill:#e77724"/>
			<path class="st1" d="m 343.08,321.73 h -1.86 l -4.91,11.23 h 1.28 c 0.14,0 0.28,-0.02 0.42,-0.06 0.14,-0.04 0.27,-0.1 0.39,-0.18 0.12,-0.08 0.23,-0.17 0.32,-0.27 0.09,-0.1 0.17,-0.22 0.22,-0.35 l 0.66,-1.52 v 0 l 1.19,-2.73 h 0.01 l 1.35,-3.14 1.64,3.81 h -0.93 c -0.7,0 -1.33,0.41 -1.61,1.05 l -0.44,1.01 h 3.89 l 0.67,1.52 c 0.12,0.27 0.3,0.48 0.54,0.63 0.24,0.15 0.51,0.23 0.8,0.23 h 1.28 z" id="path86" inkscape:connector-curvature="0" style="fill:#e77724"/>
			<path class="st1" d="m 292.76,332.96 h -2.05 v -11.23 h 4.22 c 0.54,0 1.03,0.1 1.48,0.31 0.44,0.2 0.82,0.47 1.13,0.81 0.31,0.34 0.56,0.72 0.73,1.15 0.17,0.43 0.26,0.87 0.26,1.32 0,0.33 -0.04,0.65 -0.13,0.96 -0.09,0.31 -0.22,0.61 -0.39,0.89 -0.17,0.28 -0.39,0.53 -0.63,0.76 -0.25,0.23 -0.54,0.43 -0.86,0.59 0.55,0.75 1.09,1.49 1.64,2.22 0.54,0.73 1.09,1.47 1.65,2.21 h -1.61 c -0.11,0 -0.24,-0.02 -0.38,-0.07 -0.15,-0.05 -0.3,-0.12 -0.46,-0.22 -0.16,-0.1 -0.33,-0.23 -0.49,-0.4 -0.17,-0.16 -0.34,-0.36 -0.5,-0.59 l -2.04,-2.76 h -1.54 v 4.05 z m 2.23,-6.11 c 0.2,0 0.39,-0.04 0.57,-0.13 0.18,-0.08 0.34,-0.2 0.47,-0.34 0.13,-0.14 0.24,-0.3 0.32,-0.49 0.08,-0.19 0.12,-0.38 0.12,-0.58 0,-0.21 -0.04,-0.4 -0.12,-0.59 -0.08,-0.19 -0.18,-0.35 -0.32,-0.49 -0.13,-0.14 -0.29,-0.25 -0.47,-0.34 -0.18,-0.08 -0.37,-0.13 -0.57,-0.13 h -2.22 v 3.06 h 2.22 z" id="path88" inkscape:connector-curvature="0" style="fill:#e77724"/>
		</g>
		<g id="g94">
			<path class="st1" d="m 395.9,330.9 c 0.57,0 1.03,0.46 1.03,1.03 0,0.57 -0.46,1.03 -1.03,1.03 -0.57,0 -1.03,-0.46 -1.03,-1.03 0,-0.57 0.46,-1.03 1.03,-1.03 z m 0,1.95 c 0.5,0 0.92,-0.41 0.92,-0.92 0,-0.51 -0.41,-0.92 -0.92,-0.92 -0.51,0 -0.92,0.41 -0.92,0.92 0,0.51 0.42,0.92 0.92,0.92 z m 0.18,-0.83 0.26,0.39 c 0.02,0.03 0,0.05 -0.03,0.05 h -0.13 c -0.03,0 -0.05,-0.01 -0.06,-0.03 l -0.25,-0.38 h -0.12 v 0.38 c 0,0.02 -0.01,0.03 -0.04,0.03 h -0.14 c -0.03,0 -0.04,-0.01 -0.04,-0.03 v -0.98 c 0,-0.02 0.01,-0.03 0.04,-0.03 h 0.37 c 0.17,0 0.37,0.07 0.37,0.31 -0.01,0.16 -0.11,0.25 -0.23,0.29 z m -0.16,-0.16 c 0.11,0 0.17,-0.04 0.17,-0.13 0,-0.09 -0.05,-0.13 -0.17,-0.13 h -0.18 v 0.27 h 0.18 z" id="path92" inkscape:connector-curvature="0" style="fill:#e77724"/>
		</g>
	</g>
</g>
</svg>